<?xml version="1.0" encoding="UTF-8" standalone="no"?>
<svg
   xmlns:dc="http://purl.org/dc/elements/1.1/"
   xmlns:cc="http://creativecommons.org/ns#"
   xmlns:rdf="http://www.w3.org/1999/02/22-rdf-syntax-ns#"
   xmlns:svg="http://www.w3.org/2000/svg"
   xmlns="http://www.w3.org/2000/svg"
   xmlns:sodipodi="http://sodipodi.sourceforge.net/DTD/sodipodi-0.dtd"
   xmlns:inkscape="http://www.inkscape.org/namespaces/inkscape"
   version="1.1"
   id="Layer_2"
   x="0px"
   y="0px"
   width="400.667px"
   height="400.666px"
   viewBox="0 0 400.667 400.666"
   enable-background="new 0 0 400.667 400.666"
   xml:space="preserve"
   sodipodi:docname="fi_circle.svg"
   inkscape:version="0.92.3 (2405546, 2018-03-11)"><metadata
   id="metadata793"><rdf:RDF><cc:Work
       rdf:about=""><dc:format>image/svg+xml</dc:format><dc:type
         rdf:resource="http://purl.org/dc/dcmitype/StillImage" /></cc:Work></rdf:RDF></metadata><defs
   id="defs791" /><sodipodi:namedview
   pagecolor="#ffffff"
   bordercolor="#666666"
   borderopacity="1"
   objecttolerance="10"
   gridtolerance="10"
   guidetolerance="10"
   inkscape:pageopacity="0"
   inkscape:pageshadow="2"
   inkscape:window-width="1920"
   inkscape:window-height="1023"
   id="namedview789"
   showgrid="false"
   inkscape:zoom="1.9891881"
   inkscape:cx="151.31852"
   inkscape:cy="200.33299"
   inkscape:window-x="0"
   inkscape:window-y="0"
   inkscape:window-maximized="1"
   inkscape:current-layer="g786" />
<filter
   filterUnits="objectBoundingBox"
   id="AI_Shadow_1">
	<feGaussianBlur
   stdDeviation="5"
   result="blur"
   in="SourceAlpha"
   id="feGaussianBlur771" />
	<feOffset
   dy="0"
   dx="0"
   result="offsetBlurredAlpha"
   in="blur"
   id="feOffset773" />
	<feMerge
   id="feMerge779">
		<feMergeNode
   in="offsetBlurredAlpha"
   id="feMergeNode775" />
		<feMergeNode
   in="SourceGraphic"
   id="feMergeNode777" />
	</feMerge>
</filter>
<g
   id="g786"
   style="display:inline;filter:url(#AI_Shadow_1)">
	<path
   d="m 189.27321,53.608707 c -85.84781,0 -155.44021,70.042543 -155.44021,156.445643 0,86.4031 69.5924,156.44565 155.44021,156.44565 85.84874,0 155.44021,-70.04255 155.44021,-156.44565 0,-86.4031 -69.59147,-156.445643 -155.44021,-156.445643 z m 0.31182,297.480693 c -77.21971,0 -139.818708,-63.0039 -139.818708,-140.72309 0,-77.71826 62.598998,-140.723099 139.818708,-140.723099 77.2197,0 139.8187,63.003899 139.8187,140.723099 -9.3e-4,77.71919 -62.59993,140.72309 -139.8187,140.72309 z"
   id="path782"
   inkscape:connector-curvature="0"
   style="display:none;fill:#232323;stroke-width:0.9365893" />
	<path
   stroke-miterlimit="10"
   d="m 200.333,33.5 c -91.956,0 -166.5,74.544 -166.5,166.5 0,91.956 74.544,166.5 166.5,166.5 91.957,0 166.5,-74.544 166.5,-166.5 0,-91.956 -74.543,-166.5 -166.5,-166.5 z m 0.334,316.599 C 117.953,350.099 50.9,283.046 50.9,200.332 c 0,-82.713 67.053,-149.767 149.767,-149.767 82.714,0 149.767,67.053 149.767,149.767 -0.001,82.714 -67.054,149.767 -149.767,149.767 z"
   id="path784"
   inkscape:connector-curvature="0"
   style="display:none;fill:none;stroke:#353535;stroke-width:1.29999995;stroke-miterlimit:10" />
</g>
<ellipse
   style="display:none;fill:#000000;fill-opacity:1"
   id="path799"
   cx="201.58978"
   cy="201.84114"
   rx="181.48108"
   ry="180.22429" /></svg>