<?xml version="1.0" encoding="UTF-8" standalone="no"?>
<svg
   xmlns:dc="http://purl.org/dc/elements/1.1/"
   xmlns:cc="http://creativecommons.org/ns#"
   xmlns:rdf="http://www.w3.org/1999/02/22-rdf-syntax-ns#"
   xmlns:svg="http://www.w3.org/2000/svg"
   xmlns="http://www.w3.org/2000/svg"
   xmlns:sodipodi="http://sodipodi.sourceforge.net/DTD/sodipodi-0.dtd"
   xmlns:inkscape="http://www.inkscape.org/namespaces/inkscape"
   version="1.1"
   id="Layer_2"
   x="0px"
   y="0px"
   width="400.667px"
   height="400.666px"
   viewBox="0 0 400.667 400.666"
   enable-background="new 0 0 400.667 400.666"
   xml:space="preserve"
   sodipodi:docname="fi_needle.svg"
   inkscape:version="0.92.3 (2405546, 2018-03-11)"><metadata
   id="metadata24"><rdf:RDF><cc:Work
       rdf:about=""><dc:format>image/svg+xml</dc:format><dc:type
         rdf:resource="http://purl.org/dc/dcmitype/StillImage" /></cc:Work></rdf:RDF></metadata><defs
   id="defs22" /><sodipodi:namedview
   pagecolor="#ffffff"
   bordercolor="#666666"
   borderopacity="1"
   objecttolerance="10"
   gridtolerance="10"
   guidetolerance="10"
   inkscape:pageopacity="0"
   inkscape:pageshadow="2"
   inkscape:window-width="1920"
   inkscape:window-height="1014"
   id="namedview20"
   showgrid="false"
   inkscape:zoom="0.5890193"
   inkscape:cx="203.72897"
   inkscape:cy="200.33299"
   inkscape:window-x="0"
   inkscape:window-y="0"
   inkscape:window-maximized="1"
   inkscape:current-layer="Layer_2" />

<g
   id="g17">
	<polygon
   stroke-miterlimit="10"
   points="184.334,196.417 76.445,196.417 68.082,200 76.423,203.583 184.334,203.583 "
   id="polygon13"
   style="fill:#ffffff;stroke:#b2b2b2;stroke-width:0.5;stroke-miterlimit:10" />
	<path
   stroke-miterlimit="10"
   d="m 239.042,196.417 c -3.563,-3.563 -8.918,0 -13.063,0 -0.787,0 -3.148,0 -3.148,0 h -11.969 c -1.51,-4.271 -5.573,-7.337 -10.362,-7.337 -4.789,0 -8.852,3.065 -10.362,7.337 h -5.804 v 7.167 h 5.745 c 1.464,4.355 5.572,7.496 10.42,7.496 4.848,0 8.956,-3.141 10.42,-7.496 h 12.036 c 0,0 2.314,0 3.085,0 3.874,0 9.458,3.542 13,0 2.084,-2.083 2.21,-4.959 0.002,-7.167 z"
   id="path15"
   inkscape:connector-curvature="0"
   style="fill:#232323;stroke:#353535;stroke-width:0.5;stroke-miterlimit:10" />
</g>
</svg>