<?xml version="1.0" encoding="UTF-8" standalone="no"?>
<svg
 xmlns:dc="http://purl.org/dc/elements/1.1/"
 xmlns:cc="http://creativecommons.org/ns#"
 xmlns:rdf="http://www.w3.org/1999/02/22-rdf-syntax-ns#"
 xmlns:svg="http://www.w3.org/2000/svg"
 xmlns="http://www.w3.org/2000/svg"
 xmlns:sodipodi="http://sodipodi.sourceforge.net/DTD/sodipodi-0.dtd"
 xmlns:inkscape="http://www.inkscape.org/namespaces/inkscape"
 width="310"
 height="310"
 version="1.1"
 id="svg78"
 sodipodi:docname="horizon_ball.svg"
 inkscape:version="0.92.3 (2405546, 2018-03-11)">
<metadata
 id="metadata84">
<rdf:RDF>
<cc:Work
 rdf:about="">
<dc:format>image/svg+xml</dc:format>
<dc:type
 rdf:resource="http://purl.org/dc/dcmitype/StillImage" />
<dc:title />
</cc:Work>
</rdf:RDF>
</metadata>
<defs
 id="defs82" />
<sodipodi:namedview
 pagecolor="#ffffff"
 bordercolor="#666666"
 borderopacity="1"
 objecttolerance="10"
 gridtolerance="10"
 guidetolerance="10"
 inkscape:pageopacity="0"
 inkscape:pageshadow="2"
 inkscape:window-width="1366"
 inkscape:window-height="707"
 id="namedview80"
 showgrid="false"
 inkscape:zoom="1.0766271"
 inkscape:cx="316.59804"
 inkscape:cy="190.18018"
 inkscape:window-x="0"
 inkscape:window-y="0"
 inkscape:window-maximized="1"
 inkscape:current-layer="svg78" />
<path
 d="m 255.481,156.5 c 0,110.91 -33.963,200.836 -75.885,201 h -50.114 c -41.974,0 -76,-89.99 -76,-201 0,-111.01 34.026,-201 76,-201 h 50.083 c 41.935,0.117 75.916,90.064 75.916,201 z"
 id="path2"
 inkscape:connector-curvature="0" />
<path
 stroke-miterlimit="10"
 d="m 53.481,156.143 h 202 M 141.793,143.06 h 25 m -24.812,26.125 h 25 m -25.141,27.92 h 25 M 141.981,115.06 h 25 m -33.125,14.03 h 40 m -40,54.095 h 40 m -50,27.832 h 60 m -60,-109.998 h 60"
 id="path4"
 inkscape:connector-curvature="0"
 style="fill:none;stroke:#ffffff;stroke-width:2;stroke-miterlimit:10" />
<path
 d="m 120.458,124.91 h 2.25 v 7.9 h -1.493 v -6.487 h -1.627 z m 6.196,-0.2 c 0.577,0 1.073,0.143 1.491,0.425 0.417,0.283 0.74,0.715 0.967,1.297 0.227,0.582 0.341,1.392 0.341,2.43 0,1.049 -0.115,1.866 -0.347,2.449 -0.23,0.583 -0.542,1.012 -0.932,1.287 -0.39,0.273 -0.883,0.41 -1.477,0.41 -0.594,0 -1.094,-0.137 -1.499,-0.413 -0.405,-0.276 -0.722,-0.695 -0.95,-1.257 -0.23,-0.562 -0.345,-1.362 -0.345,-2.401 0,-1.45 0.224,-2.501 0.671,-3.153 0.5,-0.715 1.192,-1.073 2.08,-1.073 z m 0.035,1.43 c -0.253,0 -0.479,0.082 -0.675,0.244 -0.196,0.163 -0.347,0.443 -0.45,0.84 -0.103,0.399 -0.155,0.98 -0.155,1.747 0,0.999 0.12,1.689 0.356,2.07 0.238,0.382 0.546,0.573 0.924,0.573 0.365,0 0.654,-0.181 0.87,-0.542 0.26,-0.437 0.39,-1.167 0.39,-2.191 0,-1.04 -0.117,-1.754 -0.35,-2.148 -0.235,-0.394 -0.538,-0.593 -0.91,-0.593 z M 109.398,99.569 h -1.466 c 0.04,-0.852 0.307,-1.523 0.803,-2.011 0.496,-0.49 1.133,-0.733 1.91,-0.733 0.48,0 0.903,0.1 1.27,0.304 0.367,0.202 0.661,0.494 0.881,0.875 0.221,0.382 0.331,0.769 0.331,1.163 0,0.469 -0.133,0.974 -0.4,1.515 -0.267,0.54 -0.755,1.18 -1.464,1.917 l -0.887,0.935 h 2.816 v 1.39 h -5.473 v -0.72 l 2.444,-2.491 c 0.591,-0.598 0.984,-1.08 1.18,-1.442 0.194,-0.363 0.291,-0.692 0.291,-0.985 0,-0.304 -0.1,-0.556 -0.303,-0.755 -0.203,-0.198 -0.463,-0.298 -0.782,-0.298 -0.322,0 -0.59,0.12 -0.806,0.36 -0.215,0.24 -0.33,0.564 -0.345,0.976 z m 7.3,-2.745 c 0.577,0 1.073,0.142 1.491,0.424 0.417,0.283 0.74,0.715 0.967,1.297 0.227,0.582 0.341,1.392 0.341,2.43 0,1.049 -0.115,1.866 -0.347,2.449 -0.23,0.583 -0.542,1.012 -0.932,1.287 -0.39,0.273 -0.883,0.41 -1.477,0.41 -0.594,0 -1.094,-0.137 -1.499,-0.413 -0.405,-0.276 -0.722,-0.695 -0.95,-1.257 -0.23,-0.562 -0.345,-1.362 -0.345,-2.401 0,-1.45 0.224,-2.501 0.671,-3.153 0.5,-0.715 1.192,-1.073 2.08,-1.073 z m 0.034,1.429 c -0.253,0 -0.479,0.082 -0.675,0.244 -0.196,0.163 -0.347,0.443 -0.45,0.84 -0.103,0.399 -0.155,0.98 -0.155,1.747 0,0.999 0.12,1.689 0.356,2.07 0.238,0.382 0.546,0.573 0.924,0.573 0.365,0 0.654,-0.181 0.87,-0.542 0.26,-0.437 0.39,-1.167 0.39,-2.191 0,-1.04 -0.117,-1.754 -0.35,-2.148 -0.235,-0.394 -0.537,-0.593 -0.91,-0.593 z m 72.04,1.217 h -1.466 c 0.04,-0.852 0.307,-1.523 0.803,-2.011 0.496,-0.49 1.133,-0.733 1.91,-0.733 0.48,0 0.903,0.1 1.27,0.304 0.367,0.202 0.661,0.494 0.881,0.875 0.221,0.382 0.331,0.769 0.331,1.163 0,0.469 -0.133,0.974 -0.4,1.515 -0.267,0.54 -0.755,1.18 -1.464,1.917 l -0.887,0.935 h 2.816 v 1.39 h -5.473 v -0.72 l 2.444,-2.491 c 0.591,-0.598 0.984,-1.08 1.18,-1.442 0.194,-0.363 0.291,-0.692 0.291,-0.985 0,-0.304 -0.1,-0.556 -0.303,-0.755 -0.203,-0.198 -0.463,-0.298 -0.782,-0.298 -0.322,0 -0.59,0.12 -0.806,0.36 -0.215,0.24 -0.33,0.564 -0.345,0.976 z m 7.3,-2.745 c 0.577,0 1.073,0.142 1.491,0.424 0.417,0.283 0.74,0.715 0.967,1.297 0.227,0.582 0.341,1.392 0.341,2.43 0,1.049 -0.115,1.866 -0.347,2.449 -0.23,0.583 -0.542,1.012 -0.932,1.287 -0.39,0.273 -0.883,0.41 -1.477,0.41 -0.594,0 -1.094,-0.137 -1.499,-0.413 -0.405,-0.276 -0.722,-0.695 -0.95,-1.257 -0.23,-0.562 -0.345,-1.362 -0.345,-2.401 0,-1.45 0.224,-2.501 0.671,-3.153 0.5,-0.715 1.192,-1.073 2.08,-1.073 z m 0.034,1.429 c -0.253,0 -0.479,0.082 -0.675,0.244 -0.196,0.163 -0.347,0.443 -0.45,0.84 -0.103,0.399 -0.155,0.98 -0.155,1.747 0,0.999 0.12,1.689 0.356,2.07 0.238,0.382 0.546,0.573 0.924,0.573 0.365,0 0.654,-0.181 0.87,-0.542 0.26,-0.437 0.39,-1.167 0.39,-2.191 0,-1.04 -0.117,-1.754 -0.35,-2.148 -0.235,-0.394 -0.537,-0.593 -0.91,-0.593 z m -17.951,26.756 h 2.25 v 7.9 h -1.493 v -6.487 h -1.627 z m 6.197,-0.2 c 0.577,0 1.073,0.143 1.491,0.425 0.417,0.283 0.74,0.715 0.967,1.297 0.227,0.582 0.341,1.392 0.341,2.43 0,1.049 -0.115,1.866 -0.347,2.449 -0.23,0.583 -0.542,1.012 -0.932,1.287 -0.39,0.273 -0.883,0.41 -1.477,0.41 -0.594,0 -1.094,-0.137 -1.499,-0.413 -0.405,-0.276 -0.722,-0.695 -0.95,-1.257 -0.23,-0.562 -0.345,-1.362 -0.345,-2.401 0,-1.45 0.224,-2.501 0.671,-3.153 0.5,-0.715 1.191,-1.073 2.08,-1.073 z m 0.034,1.43 c -0.253,0 -0.479,0.082 -0.675,0.244 -0.196,0.163 -0.347,0.443 -0.45,0.84 -0.103,0.399 -0.155,0.98 -0.155,1.747 0,0.999 0.12,1.689 0.356,2.07 0.238,0.382 0.546,0.573 0.924,0.573 0.365,0 0.654,-0.181 0.87,-0.542 0.26,-0.437 0.39,-1.167 0.39,-2.191 0,-1.04 -0.117,-1.754 -0.35,-2.148 -0.235,-0.394 -0.538,-0.593 -0.91,-0.593 z m -63.928,52.77 h 2.25 v 7.9 h -1.493 v -6.487 h -1.627 z m 6.196,-0.2 c 0.577,0 1.073,0.143 1.491,0.425 0.417,0.283 0.74,0.715 0.967,1.297 0.227,0.582 0.341,1.392 0.341,2.43 0,1.049 -0.115,1.866 -0.347,2.449 -0.23,0.583 -0.542,1.012 -0.932,1.287 -0.39,0.273 -0.883,0.41 -1.477,0.41 -0.594,0 -1.094,-0.137 -1.499,-0.413 -0.405,-0.276 -0.722,-0.695 -0.95,-1.257 -0.23,-0.562 -0.345,-1.362 -0.345,-2.401 0,-1.45 0.224,-2.501 0.671,-3.153 0.5,-0.715 1.192,-1.073 2.08,-1.073 z m 0.035,1.43 c -0.253,0 -0.479,0.082 -0.675,0.244 -0.196,0.163 -0.347,0.443 -0.45,0.84 -0.103,0.399 -0.155,0.98 -0.155,1.747 0,0.999 0.12,1.689 0.356,2.07 0.238,0.382 0.546,0.573 0.924,0.573 0.365,0 0.654,-0.181 0.87,-0.542 0.26,-0.437 0.39,-1.167 0.39,-2.191 0,-1.04 -0.117,-1.754 -0.35,-2.148 -0.235,-0.394 -0.538,-0.593 -0.91,-0.593 z m 51.466,-1.23 h 2.25 v 7.9 h -1.493 v -6.487 h -1.627 z m 6.197,-0.2 c 0.577,0 1.073,0.143 1.491,0.425 0.417,0.283 0.74,0.715 0.967,1.297 0.227,0.582 0.341,1.392 0.341,2.43 0,1.049 -0.115,1.866 -0.347,2.449 -0.23,0.583 -0.542,1.012 -0.932,1.287 -0.39,0.273 -0.883,0.41 -1.477,0.41 -0.594,0 -1.094,-0.137 -1.499,-0.413 -0.405,-0.276 -0.722,-0.695 -0.95,-1.257 -0.23,-0.562 -0.345,-1.362 -0.345,-2.401 0,-1.45 0.224,-2.501 0.671,-3.153 0.5,-0.715 1.191,-1.073 2.08,-1.073 z m 0.034,1.43 c -0.253,0 -0.479,0.082 -0.675,0.244 -0.196,0.163 -0.347,0.443 -0.45,0.84 -0.103,0.399 -0.155,0.98 -0.155,1.747 0,0.999 0.12,1.689 0.356,2.07 0.238,0.382 0.546,0.573 0.924,0.573 0.365,0 0.654,-0.181 0.87,-0.542 0.26,-0.437 0.39,-1.167 0.39,-2.191 0,-1.04 -0.117,-1.754 -0.35,-2.148 -0.235,-0.394 -0.538,-0.593 -0.91,-0.593 z m -74.988,29.429 h -1.466 c 0.04,-0.852 0.307,-1.523 0.803,-2.011 0.496,-0.49 1.133,-0.733 1.91,-0.733 0.48,0 0.903,0.1 1.27,0.304 0.367,0.202 0.661,0.494 0.881,0.875 0.221,0.382 0.331,0.769 0.331,1.163 0,0.469 -0.133,0.974 -0.4,1.515 -0.267,0.54 -0.755,1.18 -1.464,1.917 l -0.887,0.935 h 2.816 v 1.39 h -5.473 v -0.72 l 2.444,-2.491 c 0.591,-0.598 0.984,-1.08 1.18,-1.442 0.194,-0.363 0.291,-0.692 0.291,-0.985 0,-0.304 -0.1,-0.556 -0.303,-0.755 -0.203,-0.198 -0.463,-0.298 -0.782,-0.298 -0.322,0 -0.59,0.12 -0.806,0.36 -0.215,0.24 -0.33,0.564 -0.345,0.976 z m 7.3,-2.745 c 0.577,0 1.073,0.142 1.491,0.424 0.417,0.283 0.74,0.715 0.967,1.297 0.227,0.582 0.341,1.392 0.341,2.43 0,1.049 -0.115,1.866 -0.347,2.449 -0.23,0.583 -0.542,1.012 -0.932,1.287 -0.39,0.273 -0.883,0.41 -1.477,0.41 -0.594,0 -1.094,-0.137 -1.499,-0.413 -0.405,-0.276 -0.722,-0.695 -0.95,-1.257 -0.23,-0.562 -0.345,-1.362 -0.345,-2.401 0,-1.45 0.224,-2.501 0.671,-3.153 0.5,-0.715 1.192,-1.073 2.08,-1.073 z m 0.034,1.429 c -0.253,0 -0.479,0.082 -0.675,0.244 -0.196,0.163 -0.347,0.443 -0.45,0.84 -0.103,0.399 -0.155,0.98 -0.155,1.747 0,0.999 0.12,1.689 0.356,2.07 0.238,0.382 0.546,0.573 0.924,0.573 0.365,0 0.654,-0.181 0.87,-0.542 0.26,-0.437 0.39,-1.167 0.39,-2.191 0,-1.04 -0.117,-1.754 -0.35,-2.148 -0.235,-0.394 -0.537,-0.593 -0.91,-0.593 z m 72.04,1.217 h -1.466 c 0.04,-0.852 0.307,-1.523 0.803,-2.011 0.496,-0.49 1.133,-0.733 1.91,-0.733 0.48,0 0.903,0.1 1.27,0.304 0.367,0.202 0.661,0.494 0.881,0.875 0.221,0.382 0.331,0.769 0.331,1.163 0,0.469 -0.133,0.974 -0.4,1.515 -0.267,0.54 -0.755,1.18 -1.464,1.917 l -0.887,0.935 h 2.816 v 1.39 h -5.473 v -0.72 l 2.444,-2.491 c 0.591,-0.598 0.984,-1.08 1.18,-1.442 0.194,-0.363 0.291,-0.692 0.291,-0.985 0,-0.304 -0.1,-0.556 -0.303,-0.755 -0.203,-0.198 -0.463,-0.298 -0.782,-0.298 -0.322,0 -0.59,0.12 -0.806,0.36 -0.215,0.24 -0.33,0.564 -0.345,0.976 z m 7.3,-2.745 c 0.577,0 1.073,0.142 1.491,0.424 0.417,0.283 0.74,0.715 0.967,1.297 0.227,0.582 0.341,1.392 0.341,2.43 0,1.049 -0.115,1.866 -0.347,2.449 -0.23,0.583 -0.542,1.012 -0.932,1.287 -0.39,0.273 -0.883,0.41 -1.477,0.41 -0.594,0 -1.094,-0.137 -1.499,-0.413 -0.405,-0.276 -0.722,-0.695 -0.95,-1.257 -0.23,-0.562 -0.345,-1.362 -0.345,-2.401 0,-1.45 0.224,-2.501 0.671,-3.153 0.5,-0.715 1.192,-1.073 2.08,-1.073 z m 0.034,1.429 c -0.253,0 -0.479,0.082 -0.675,0.244 -0.196,0.163 -0.347,0.443 -0.45,0.84 -0.103,0.399 -0.155,0.98 -0.155,1.747 0,0.999 0.12,1.689 0.356,2.07 0.238,0.382 0.546,0.573 0.924,0.573 0.365,0 0.654,-0.181 0.87,-0.542 0.26,-0.437 0.39,-1.167 0.39,-2.191 0,-1.04 -0.117,-1.754 -0.35,-2.148 -0.235,-0.394 -0.537,-0.593 -0.91,-0.593 z"
 id="path6"
 inkscape:connector-curvature="0"
 style="fill:#ffffff" />
<path
 stroke-miterlimit="10"
 d="m 141.611,86.978 h 25 m -25.438,138.526 h 25 M 141.99,60.294 h 25 m -33.125,14.031 h 40 m -50,-28.072 h 60 M 141.62,32.212 h 25 m -24.662,222.196 h 25 m -32.983,-13.921 h 40 m -50.119,27.833 h 60 m -42.564,14.487 h 25"
 id="path8"
 inkscape:connector-curvature="0"
 style="fill:none;stroke:#ffffff;stroke-width:2;stroke-miterlimit:10" />
<text
 style="font-weight:700;font-size:10.66699982px;line-height:1.25;font-family:'Noto Sans Symbols';-inkscape-font-specification:'Noto Sans Symbols, Bold';font-variant-ligatures:normal;font-variant-caps:normal;font-variant-numeric:normal;font-feature-settings:normal;text-align:start;letter-spacing:0;word-spacing:0;fill:#ffffff"
 x="116.284"
 y="243.94223"
 font-weight="700"
 font-size="10.667"
 letter-spacing="0"
 word-spacing="0"
 id="text12">
<tspan
 x="116.284"
 y="243.94223"
 style="-inkscape-font-specification:'Noto Sans Symbols, Bold';font-variant-ligatures:normal;font-variant-caps:normal;font-variant-numeric:normal;font-feature-settings:normal;text-align:start"
 id="tspan10">30</tspan>
</text>
<text
 style="font-weight:700;font-size:10.66699982px;line-height:1.25;font-family:'Noto Sans Symbols';-inkscape-font-specification:'Noto Sans Symbols, Bold';font-variant-ligatures:normal;font-variant-caps:normal;font-variant-numeric:normal;font-feature-settings:normal;text-align:start;letter-spacing:0;word-spacing:0;fill:#ffffff"
 x="116.34"
 y="77.856941"
 font-weight="700"
 font-size="10.667"
 letter-spacing="0"
 word-spacing="0"
 id="text16">
<tspan
 x="116.34"
 y="77.856941"
 style="-inkscape-font-specification:'Noto Sans Symbols, Bold';font-variant-ligatures:normal;font-variant-caps:normal;font-variant-numeric:normal;font-feature-settings:normal;text-align:start"
 id="tspan14">30</tspan>
</text>
<text
 style="font-weight:700;font-size:10.66699982px;line-height:1.25;font-family:'Noto Sans Symbols';-inkscape-font-specification:'Noto Sans Symbols, Bold';font-variant-ligatures:normal;font-variant-caps:normal;font-variant-numeric:normal;font-feature-settings:normal;text-align:start;letter-spacing:0;word-spacing:0;fill:#ffffff"
 x="176.18401"
 y="78.318939"
 font-weight="700"
 font-size="10.667"
 letter-spacing="0"
 word-spacing="0"
 id="text20">
<tspan
 x="176.18401"
 y="78.318939"
 style="-inkscape-font-specification:'Noto Sans Symbols, Bold';font-variant-ligatures:normal;font-variant-caps:normal;font-variant-numeric:normal;font-feature-settings:normal;text-align:start"
 id="tspan18">30</tspan>
</text>
<text
 style="font-weight:700;font-size:10.66699982px;line-height:1.25;font-family:'Noto Sans Symbols';-inkscape-font-specification:'Noto Sans Symbols, Bold';font-variant-ligatures:normal;font-variant-caps:normal;font-variant-numeric:normal;font-feature-settings:normal;text-align:start;letter-spacing:0;word-spacing:0;fill:#ffffff"
 x="176.509"
 y="244.26923"
 font-weight="700"
 font-size="10.667"
 letter-spacing="0"
 word-spacing="0"
 id="text24">
<tspan
 x="176.509"
 y="244.26923"
 style="-inkscape-font-specification:'Noto Sans Symbols, Bold';font-variant-ligatures:normal;font-variant-caps:normal;font-variant-numeric:normal;font-feature-settings:normal;text-align:start"
 id="tspan22">30</tspan>
</text>
<text
 style="font-weight:700;font-size:10.66699982px;line-height:1.25;font-family:'Noto Sans Symbols';-inkscape-font-specification:'Noto Sans Symbols, Bold';font-variant-ligatures:normal;font-variant-caps:normal;font-variant-numeric:normal;font-feature-settings:normal;text-align:start;letter-spacing:0;word-spacing:0;fill:#ffffff"
 x="105.881"
 y="49.492943"
 font-weight="700"
 font-size="10.667"
 letter-spacing="0"
 word-spacing="0"
 id="text28">
<tspan
 x="105.881"
 y="49.492943"
 id="tspan26">40</tspan>
</text>
<text
 style="font-weight:700;font-size:10.66699982px;line-height:1.25;font-family:'Noto Sans Symbols';-inkscape-font-specification:'Noto Sans Symbols, Bold';font-variant-ligatures:normal;font-variant-caps:normal;font-variant-numeric:normal;font-feature-settings:normal;text-align:start;letter-spacing:0;word-spacing:0;fill:#ffffff"
 x="186.47"
 y="49.67094"
 font-weight="700"
 font-size="10.667"
 letter-spacing="0"
 word-spacing="0"
 id="text32">
<tspan
 x="186.47"
 y="49.67094"
 id="tspan30">40</tspan>
</text>
<text
 style="font-weight:700;font-size:10.66699982px;line-height:1.25;font-family:'Noto Sans Symbols';-inkscape-font-specification:'Noto Sans Symbols, Bold';font-variant-ligatures:normal;font-variant-caps:normal;font-variant-numeric:normal;font-feature-settings:normal;text-align:start;letter-spacing:0;word-spacing:0;fill:#ffffff"
 x="106.057"
 y="272.05722"
 font-weight="700"
 font-size="10.667"
 letter-spacing="0"
 word-spacing="0"
 id="text36">
<tspan
 y="272.05722"
 x="106.057"
 id="tspan34">40</tspan>
</text>
<text
 style="font-weight:700;font-size:10.66699982px;line-height:1.25;font-family:'Noto Sans Symbols';-inkscape-font-specification:'Noto Sans Symbols, Bold';font-variant-ligatures:normal;font-variant-caps:normal;font-variant-numeric:normal;font-feature-settings:normal;text-align:start;letter-spacing:0;word-spacing:0;fill:#ffffff"
 x="187.33299"
 y="271.97223"
 font-weight="700"
 font-size="10.667"
 letter-spacing="0"
 word-spacing="0"
 id="text40">
<tspan
 y="271.97223"
 x="187.33299"
 id="tspan38">40</tspan>
</text>
<text
 style="font-weight:700;font-size:10.66699982px;line-height:1.25;font-family:'Noto Sans Symbols';-inkscape-font-specification:'Noto Sans Symbols, Bold';font-variant-ligatures:normal;font-variant-caps:normal;font-variant-numeric:normal;font-feature-settings:normal;text-align:start;letter-spacing:0;word-spacing:0;fill:#ffffff"
 x="115.934"
 y="21.503014"
 font-weight="700"
 font-size="10.667"
 letter-spacing="0"
 word-spacing="0"
 id="text44">
<tspan
 x="115.934"
 y="21.503014"
 id="tspan42">50</tspan>
</text>
<text
 style="font-weight:700;font-size:10.66699982px;line-height:1.25;font-family:'Noto Sans Symbols';-inkscape-font-specification:'Noto Sans Symbols, Bold';font-variant-ligatures:normal;font-variant-caps:normal;font-variant-numeric:normal;font-feature-settings:normal;text-align:start;letter-spacing:0;word-spacing:0;fill:#ffffff"
 x="175.757"
 y="21.503014"
 font-weight="700"
 font-size="10.667"
 letter-spacing="0"
 word-spacing="0"
 id="text48">
<tspan
 x="175.757"
 y="21.503014"
 id="tspan46">50</tspan>
</text>
<text
 style="font-weight:700;font-size:10.66699982px;line-height:1.25;font-family:'Noto Sans Symbols';-inkscape-font-specification:'Noto Sans Symbols, Bold';font-variant-ligatures:normal;font-variant-caps:normal;font-variant-numeric:normal;font-feature-settings:normal;text-align:start;letter-spacing:0;word-spacing:0;fill:#ffffff"
 x="104.71"
 y="-5.7249961"
 font-weight="700"
 font-size="10.667"
 letter-spacing="0"
 word-spacing="0"
 id="text52">
<tspan
 x="104.71"
 y="-5.7249961"
 id="tspan50">60</tspan>
</text>
<text
 style="font-weight:700;font-size:10.66699982px;line-height:1.25;font-family:'Noto Sans Symbols';-inkscape-font-specification:'Noto Sans Symbols, Bold';font-variant-ligatures:normal;font-variant-caps:normal;font-variant-numeric:normal;font-feature-settings:normal;text-align:start;letter-spacing:0;word-spacing:0;fill:#ffffff"
 x="185.299"
 y="-5.5469975"
 font-weight="700"
 font-size="10.667"
 letter-spacing="0"
 word-spacing="0"
 id="text56">
<tspan
 x="185.299"
 y="-5.5469975"
 id="tspan54">60</tspan>
</text>
<path
 stroke-miterlimit="10"
 d="m 141.583,310.574 h 25 M 133.6,296.653 h 40 m -50.12,27.833 h 60.001 m -40.564,14.487 h 25"
 id="path58"
 inkscape:connector-curvature="0"
 style="fill:none;stroke:#ffffff;stroke-width:2;stroke-miterlimit:10" />
<text
 style="font-weight:700;font-size:10.66699982px;line-height:1.25;font-family:'Noto Sans Symbols';-inkscape-font-specification:'Noto Sans Symbols, Bold';font-variant-ligatures:normal;font-variant-caps:normal;font-variant-numeric:normal;font-feature-settings:normal;text-align:start;letter-spacing:0;word-spacing:0;fill:#ffffff"
 x="115.908"
 y="300.10825"
 font-weight="700"
 font-size="10.667"
 letter-spacing="0"
 word-spacing="0"
 id="text62">
<tspan
 x="115.908"
 y="300.10825"
 id="tspan60">50</tspan>
</text>
<text
 style="font-weight:700;font-size:10.66699982px;line-height:1.25;font-family:'Noto Sans Symbols';-inkscape-font-specification:'Noto Sans Symbols, Bold';font-variant-ligatures:normal;font-variant-caps:normal;font-variant-numeric:normal;font-feature-settings:normal;text-align:start;letter-spacing:0;word-spacing:0;fill:#ffffff"
 x="176.133"
 y="300.43524"
 font-weight="700"
 font-size="10.667"
 letter-spacing="0"
 word-spacing="0"
 id="text66">
<tspan
 x="176.133"
 y="300.43524"
 id="tspan64">50</tspan>
</text>
<text
 style="font-weight:700;font-size:10.66699982px;line-height:1.25;font-family:'Noto Sans Symbols';-inkscape-font-specification:'Noto Sans Symbols, Bold';font-variant-ligatures:normal;font-variant-caps:normal;font-variant-numeric:normal;font-feature-settings:normal;text-align:start;letter-spacing:0;word-spacing:0;fill:#ffffff"
 x="105.682"
 y="328.22324"
 font-weight="700"
 font-size="10.667"
 letter-spacing="0"
 word-spacing="0"
 id="text70">
<tspan
 x="105.682"
 y="328.22324"
 id="tspan68">60</tspan>
</text>
<text
 style="font-weight:700;font-size:10.66699982px;line-height:1.25;font-family:'Noto Sans Symbols';-inkscape-font-specification:'Noto Sans Symbols, Bold';font-variant-ligatures:normal;font-variant-caps:normal;font-variant-numeric:normal;font-feature-settings:normal;text-align:start;letter-spacing:0;word-spacing:0;fill:#ffffff"
 x="186.957"
 y="328.13724"
 font-weight="700"
 font-size="10.667"
 letter-spacing="0"
 word-spacing="0"
 id="text74">
<tspan
 x="186.957"
 y="328.13724"
 id="tspan72">60</tspan>
</text>
<path
 stroke-miterlimit="10"
 d="m 165.281,4.291 h -25 m 32.983,13.921 h -40 m 50.12,-27.833 h -60.001 m 40.564,-14.487 h -25"
 id="path76"
 inkscape:connector-curvature="0"
 style="fill:none;stroke:#ffffff;stroke-width:2;stroke-miterlimit:10" />
</svg>
