<?xml version="1.0" encoding="UTF-8" standalone="no"?>
<svg
   xmlns:dc="http://purl.org/dc/elements/1.1/"
   xmlns:cc="http://creativecommons.org/ns#"
   xmlns:rdf="http://www.w3.org/1999/02/22-rdf-syntax-ns#"
   xmlns:svg="http://www.w3.org/2000/svg"
   xmlns="http://www.w3.org/2000/svg"
   xmlns:sodipodi="http://sodipodi.sourceforge.net/DTD/sodipodi-0.dtd"
   xmlns:inkscape="http://www.inkscape.org/namespaces/inkscape"
   width="310"
   height="402"
   version="1.1"
   id="svg142"
   sodipodi:docname="horizon_ball.svg"
   inkscape:version="0.92.4 (5da689c313, 2019-01-14)">
  <metadata
     id="metadata148">
    <rdf:RDF>
      <cc:Work
         rdf:about="">
        <dc:format>image/svg+xml</dc:format>
        <dc:type
           rdf:resource="http://purl.org/dc/dcmitype/StillImage" />
        <dc:title></dc:title>
      </cc:Work>
    </rdf:RDF>
  </metadata>
  <defs
     id="defs146" />
  <sodipodi:namedview
     pagecolor="#ffffff"
     bordercolor="#666666"
     borderopacity="1"
     objecttolerance="10"
     gridtolerance="10"
     guidetolerance="10"
     inkscape:pageopacity="0"
     inkscape:pageshadow="2"
     inkscape:window-width="1920"
     inkscape:window-height="1017"
     id="namedview144"
     showgrid="false"
     showguides="true"
     inkscape:guide-bbox="true"
     inkscape:zoom="3.6660194"
     inkscape:cx="108.49179"
     inkscape:cy="107.41833"
     inkscape:window-x="-8"
     inkscape:window-y="-8"
     inkscape:window-maximized="1"
     inkscape:current-layer="svg142">
    <sodipodi:guide
       position="226.67638,157.6642"
       orientation="0,1"
       id="guide165"
       inkscape:locked="false" />
  </sodipodi:namedview>
  <path
     d="m 255.481,201.00001 c 0,110.90982 -33.963,200.83606 -75.885,200.99999 h -50.114 c -41.974,0 -76,-89.98946 -76,-200.99999 C 53.482,89.98946 87.508,0 129.482,0 h 50.083 c 41.935,0.117087 75.916,90.06362 75.916,201.00001 z"
     id="path2"
     inkscape:connector-curvature="0"
     style="stroke-width:0.88350582" />
  <path
     stroke-miterlimit="10"
     d="m 53.481,200.643 h 202 M 141.793,187.56 h 25 m -24.812,26.125 h 25 m -25.141,27.92 h 25 M 141.981,159.56 h 25 m -33.125,14.03 h 40 m -40,54.095 h 40 m -50,27.832 h 60 m -60,-109.998 h 60"
     id="path4"
     inkscape:connector-curvature="0"
     style="fill:none;stroke:#ffffff;stroke-width:2;stroke-miterlimit:10" />
  <g
     id="g8"
     style="fill:#ffffff"
     transform="translate(0,-57)">
    <path
       d="m 120.458,226.41 h 2.25 v 7.9 h -1.493 v -6.487 h -1.627 z m 6.196,-0.2 c 0.577,0 1.073,0.143 1.491,0.425 0.417,0.283 0.74,0.715 0.967,1.297 0.227,0.582 0.341,1.392 0.341,2.43 0,1.049 -0.115,1.866 -0.347,2.449 -0.23,0.583 -0.542,1.012 -0.932,1.287 -0.39,0.273 -0.883,0.41 -1.477,0.41 -0.594,0 -1.094,-0.137 -1.499,-0.413 -0.405,-0.276 -0.722,-0.695 -0.95,-1.257 -0.23,-0.562 -0.345,-1.362 -0.345,-2.401 0,-1.45 0.224,-2.501 0.671,-3.153 0.5,-0.715 1.192,-1.073 2.08,-1.073 z m 0.035,1.43 c -0.253,0 -0.479,0.082 -0.675,0.244 -0.196,0.163 -0.347,0.443 -0.45,0.84 -0.103,0.399 -0.155,0.98 -0.155,1.747 0,0.999 0.12,1.689 0.356,2.07 0.238,0.382 0.546,0.573 0.924,0.573 0.365,0 0.654,-0.181 0.87,-0.542 0.26,-0.437 0.39,-1.167 0.39,-2.191 0,-1.04 -0.117,-1.754 -0.35,-2.148 -0.235,-0.394 -0.538,-0.593 -0.91,-0.593 z"
       id="path6"
       inkscape:connector-curvature="0" />
  </g>
  <g
     id="g12"
     style="fill:#ffffff"
     transform="translate(0,-57)">
    <path
       d="m 109.398,201.069 h -1.466 c 0.04,-0.852 0.307,-1.523 0.803,-2.011 0.496,-0.49 1.133,-0.733 1.91,-0.733 0.48,0 0.903,0.1 1.27,0.304 0.367,0.202 0.661,0.494 0.881,0.875 0.221,0.382 0.331,0.769 0.331,1.163 0,0.469 -0.133,0.974 -0.4,1.515 -0.267,0.54 -0.755,1.18 -1.464,1.917 l -0.887,0.935 h 2.816 v 1.39 h -5.473 v -0.72 l 2.444,-2.491 c 0.591,-0.598 0.984,-1.08 1.18,-1.442 0.194,-0.363 0.291,-0.692 0.291,-0.985 0,-0.304 -0.1,-0.556 -0.303,-0.755 -0.203,-0.198 -0.463,-0.298 -0.782,-0.298 -0.322,0 -0.59,0.12 -0.806,0.36 -0.215,0.24 -0.33,0.564 -0.345,0.976 z m 7.3,-2.745 c 0.577,0 1.073,0.142 1.491,0.424 0.417,0.283 0.74,0.715 0.967,1.297 0.227,0.582 0.341,1.392 0.341,2.43 0,1.049 -0.115,1.866 -0.347,2.449 -0.23,0.583 -0.542,1.012 -0.932,1.287 -0.39,0.273 -0.883,0.41 -1.477,0.41 -0.594,0 -1.094,-0.137 -1.499,-0.413 -0.405,-0.276 -0.722,-0.695 -0.95,-1.257 -0.23,-0.562 -0.345,-1.362 -0.345,-2.401 0,-1.45 0.224,-2.501 0.671,-3.153 0.5,-0.715 1.192,-1.073 2.08,-1.073 z m 0.034,1.429 c -0.253,0 -0.479,0.082 -0.675,0.244 -0.196,0.163 -0.347,0.443 -0.45,0.84 -0.103,0.399 -0.155,0.98 -0.155,1.747 0,0.999 0.12,1.689 0.356,2.07 0.238,0.382 0.546,0.573 0.924,0.573 0.365,0 0.654,-0.181 0.87,-0.542 0.26,-0.437 0.39,-1.167 0.39,-2.191 0,-1.04 -0.117,-1.754 -0.35,-2.148 -0.235,-0.394 -0.537,-0.593 -0.91,-0.593 z"
       id="path10"
       inkscape:connector-curvature="0" />
  </g>
  <g
     id="g16"
     style="fill:#ffffff"
     transform="translate(0,-57)">
    <path
       d="m 188.772,200.97 h -1.466 c 0.04,-0.852 0.307,-1.523 0.803,-2.011 0.496,-0.49 1.133,-0.733 1.91,-0.733 0.48,0 0.903,0.1 1.27,0.304 0.367,0.202 0.661,0.494 0.881,0.875 0.221,0.382 0.331,0.769 0.331,1.163 0,0.469 -0.133,0.974 -0.4,1.515 -0.267,0.54 -0.755,1.18 -1.464,1.917 l -0.887,0.935 h 2.816 v 1.39 h -5.473 v -0.72 l 2.444,-2.491 c 0.591,-0.598 0.984,-1.08 1.18,-1.442 0.194,-0.363 0.291,-0.692 0.291,-0.985 0,-0.304 -0.1,-0.556 -0.303,-0.755 -0.203,-0.198 -0.463,-0.298 -0.782,-0.298 -0.322,0 -0.59,0.12 -0.806,0.36 -0.215,0.24 -0.33,0.564 -0.345,0.976 z m 7.3,-2.745 c 0.577,0 1.073,0.142 1.491,0.424 0.417,0.283 0.74,0.715 0.967,1.297 0.227,0.582 0.341,1.392 0.341,2.43 0,1.049 -0.115,1.866 -0.347,2.449 -0.23,0.583 -0.542,1.012 -0.932,1.287 -0.39,0.273 -0.883,0.41 -1.477,0.41 -0.594,0 -1.094,-0.137 -1.499,-0.413 -0.405,-0.276 -0.722,-0.695 -0.95,-1.257 -0.23,-0.562 -0.345,-1.362 -0.345,-2.401 0,-1.45 0.224,-2.501 0.671,-3.153 0.5,-0.715 1.192,-1.073 2.08,-1.073 z m 0.034,1.429 c -0.253,0 -0.479,0.082 -0.675,0.244 -0.196,0.163 -0.347,0.443 -0.45,0.84 -0.103,0.399 -0.155,0.98 -0.155,1.747 0,0.999 0.12,1.689 0.356,2.07 0.238,0.382 0.546,0.573 0.924,0.573 0.365,0 0.654,-0.181 0.87,-0.542 0.26,-0.437 0.39,-1.167 0.39,-2.191 0,-1.04 -0.117,-1.754 -0.35,-2.148 -0.235,-0.394 -0.537,-0.593 -0.91,-0.593 z"
       id="path14"
       inkscape:connector-curvature="0" />
  </g>
  <g
     id="g20"
     style="fill:#ffffff"
     transform="translate(0,-57)">
    <path
       d="m 178.155,226.41 h 2.25 v 7.9 h -1.493 v -6.487 h -1.627 z m 6.197,-0.2 c 0.577,0 1.073,0.143 1.491,0.425 0.417,0.283 0.74,0.715 0.967,1.297 0.227,0.582 0.341,1.392 0.341,2.43 0,1.049 -0.115,1.866 -0.347,2.449 -0.23,0.583 -0.542,1.012 -0.932,1.287 -0.39,0.273 -0.883,0.41 -1.477,0.41 -0.594,0 -1.094,-0.137 -1.499,-0.413 -0.405,-0.276 -0.722,-0.695 -0.95,-1.257 -0.23,-0.562 -0.345,-1.362 -0.345,-2.401 0,-1.45 0.224,-2.501 0.671,-3.153 0.5,-0.715 1.191,-1.073 2.08,-1.073 z m 0.034,1.43 c -0.253,0 -0.479,0.082 -0.675,0.244 -0.196,0.163 -0.347,0.443 -0.45,0.84 -0.103,0.399 -0.155,0.98 -0.155,1.747 0,0.999 0.12,1.689 0.356,2.07 0.238,0.382 0.546,0.573 0.924,0.573 0.365,0 0.654,-0.181 0.87,-0.542 0.26,-0.437 0.39,-1.167 0.39,-2.191 0,-1.04 -0.117,-1.754 -0.35,-2.148 -0.235,-0.394 -0.538,-0.593 -0.91,-0.593 z"
       id="path18"
       inkscape:connector-curvature="0" />
  </g>
  <g
     id="g24"
     style="fill:#ffffff"
     transform="translate(0,-57)">
    <path
       d="m 120.458,280.41 h 2.25 v 7.9 h -1.493 v -6.487 h -1.627 z m 6.196,-0.2 c 0.577,0 1.073,0.143 1.491,0.425 0.417,0.283 0.74,0.715 0.967,1.297 0.227,0.582 0.341,1.392 0.341,2.43 0,1.049 -0.115,1.866 -0.347,2.449 -0.23,0.583 -0.542,1.012 -0.932,1.287 -0.39,0.273 -0.883,0.41 -1.477,0.41 -0.594,0 -1.094,-0.137 -1.499,-0.413 -0.405,-0.276 -0.722,-0.695 -0.95,-1.257 -0.23,-0.562 -0.345,-1.362 -0.345,-2.401 0,-1.45 0.224,-2.501 0.671,-3.153 0.5,-0.715 1.192,-1.073 2.08,-1.073 z m 0.035,1.43 c -0.253,0 -0.479,0.082 -0.675,0.244 -0.196,0.163 -0.347,0.443 -0.45,0.84 -0.103,0.399 -0.155,0.98 -0.155,1.747 0,0.999 0.12,1.689 0.356,2.07 0.238,0.382 0.546,0.573 0.924,0.573 0.365,0 0.654,-0.181 0.87,-0.542 0.26,-0.437 0.39,-1.167 0.39,-2.191 0,-1.04 -0.117,-1.754 -0.35,-2.148 -0.235,-0.394 -0.538,-0.593 -0.91,-0.593 z"
       id="path22"
       inkscape:connector-curvature="0" />
  </g>
  <g
     id="g28"
     style="fill:#ffffff"
     transform="translate(0,-57)">
    <path
       d="m 178.155,280.41 h 2.25 v 7.9 h -1.493 v -6.487 h -1.627 z m 6.197,-0.2 c 0.577,0 1.073,0.143 1.491,0.425 0.417,0.283 0.74,0.715 0.967,1.297 0.227,0.582 0.341,1.392 0.341,2.43 0,1.049 -0.115,1.866 -0.347,2.449 -0.23,0.583 -0.542,1.012 -0.932,1.287 -0.39,0.273 -0.883,0.41 -1.477,0.41 -0.594,0 -1.094,-0.137 -1.499,-0.413 -0.405,-0.276 -0.722,-0.695 -0.95,-1.257 -0.23,-0.562 -0.345,-1.362 -0.345,-2.401 0,-1.45 0.224,-2.501 0.671,-3.153 0.5,-0.715 1.191,-1.073 2.08,-1.073 z m 0.034,1.43 c -0.253,0 -0.479,0.082 -0.675,0.244 -0.196,0.163 -0.347,0.443 -0.45,0.84 -0.103,0.399 -0.155,0.98 -0.155,1.747 0,0.999 0.12,1.689 0.356,2.07 0.238,0.382 0.546,0.573 0.924,0.573 0.365,0 0.654,-0.181 0.87,-0.542 0.26,-0.437 0.39,-1.167 0.39,-2.191 0,-1.04 -0.117,-1.754 -0.35,-2.148 -0.235,-0.394 -0.538,-0.593 -0.91,-0.593 z"
       id="path26"
       inkscape:connector-curvature="0" />
  </g>
  <g
     id="g32"
     style="fill:#ffffff"
     transform="translate(0,-57)">
    <path
       d="m 109.398,311.069 h -1.466 c 0.04,-0.852 0.307,-1.523 0.803,-2.011 0.496,-0.49 1.133,-0.733 1.91,-0.733 0.48,0 0.903,0.1 1.27,0.304 0.367,0.202 0.661,0.494 0.881,0.875 0.221,0.382 0.331,0.769 0.331,1.163 0,0.469 -0.133,0.974 -0.4,1.515 -0.267,0.54 -0.755,1.18 -1.464,1.917 l -0.887,0.935 h 2.816 v 1.39 h -5.473 v -0.72 l 2.444,-2.491 c 0.591,-0.598 0.984,-1.08 1.18,-1.442 0.194,-0.363 0.291,-0.692 0.291,-0.985 0,-0.304 -0.1,-0.556 -0.303,-0.755 -0.203,-0.198 -0.463,-0.298 -0.782,-0.298 -0.322,0 -0.59,0.12 -0.806,0.36 -0.215,0.24 -0.33,0.564 -0.345,0.976 z m 7.3,-2.745 c 0.577,0 1.073,0.142 1.491,0.424 0.417,0.283 0.74,0.715 0.967,1.297 0.227,0.582 0.341,1.392 0.341,2.43 0,1.049 -0.115,1.866 -0.347,2.449 -0.23,0.583 -0.542,1.012 -0.932,1.287 -0.39,0.273 -0.883,0.41 -1.477,0.41 -0.594,0 -1.094,-0.137 -1.499,-0.413 -0.405,-0.276 -0.722,-0.695 -0.95,-1.257 -0.23,-0.562 -0.345,-1.362 -0.345,-2.401 0,-1.45 0.224,-2.501 0.671,-3.153 0.5,-0.715 1.192,-1.073 2.08,-1.073 z m 0.034,1.429 c -0.253,0 -0.479,0.082 -0.675,0.244 -0.196,0.163 -0.347,0.443 -0.45,0.84 -0.103,0.399 -0.155,0.98 -0.155,1.747 0,0.999 0.12,1.689 0.356,2.07 0.238,0.382 0.546,0.573 0.924,0.573 0.365,0 0.654,-0.181 0.87,-0.542 0.26,-0.437 0.39,-1.167 0.39,-2.191 0,-1.04 -0.117,-1.754 -0.35,-2.148 -0.235,-0.394 -0.537,-0.593 -0.91,-0.593 z"
       id="path30"
       inkscape:connector-curvature="0" />
  </g>
  <g
     id="g36"
     style="fill:#ffffff"
     transform="translate(0,-57)">
    <path
       d="m 188.772,310.97 h -1.466 c 0.04,-0.852 0.307,-1.523 0.803,-2.011 0.496,-0.49 1.133,-0.733 1.91,-0.733 0.48,0 0.903,0.1 1.27,0.304 0.367,0.202 0.661,0.494 0.881,0.875 0.221,0.382 0.331,0.769 0.331,1.163 0,0.469 -0.133,0.974 -0.4,1.515 -0.267,0.54 -0.755,1.18 -1.464,1.917 l -0.887,0.935 h 2.816 v 1.39 h -5.473 v -0.72 l 2.444,-2.491 c 0.591,-0.598 0.984,-1.08 1.18,-1.442 0.194,-0.363 0.291,-0.692 0.291,-0.985 0,-0.304 -0.1,-0.556 -0.303,-0.755 -0.203,-0.198 -0.463,-0.298 -0.782,-0.298 -0.322,0 -0.59,0.12 -0.806,0.36 -0.215,0.24 -0.33,0.564 -0.345,0.976 z m 7.3,-2.745 c 0.577,0 1.073,0.142 1.491,0.424 0.417,0.283 0.74,0.715 0.967,1.297 0.227,0.582 0.341,1.392 0.341,2.43 0,1.049 -0.115,1.866 -0.347,2.449 -0.23,0.583 -0.542,1.012 -0.932,1.287 -0.39,0.273 -0.883,0.41 -1.477,0.41 -0.594,0 -1.094,-0.137 -1.499,-0.413 -0.405,-0.276 -0.722,-0.695 -0.95,-1.257 -0.23,-0.562 -0.345,-1.362 -0.345,-2.401 0,-1.45 0.224,-2.501 0.671,-3.153 0.5,-0.715 1.192,-1.073 2.08,-1.073 z m 0.034,1.429 c -0.253,0 -0.479,0.082 -0.675,0.244 -0.196,0.163 -0.347,0.443 -0.45,0.84 -0.103,0.399 -0.155,0.98 -0.155,1.747 0,0.999 0.12,1.689 0.356,2.07 0.238,0.382 0.546,0.573 0.924,0.573 0.365,0 0.654,-0.181 0.87,-0.542 0.26,-0.437 0.39,-1.167 0.39,-2.191 0,-1.04 -0.117,-1.754 -0.35,-2.148 -0.235,-0.394 -0.537,-0.593 -0.91,-0.593 z"
       id="path34"
       inkscape:connector-curvature="0" />
  </g>
  <path
     stroke-miterlimit="10"
     d="m 141.611,131.478 h 25 m -25.438,138.526 h 25 M 141.99,104.794 h 25 m -33.125,14.031 h 40 m -50,-28.072 h 60 M 141.62,76.712 h 25 m -24.662,222.196 h 25 m -32.983,-13.921 h 40 m -50.119,27.833 h 60 m -42.564,14.487 h 25"
     id="path38"
     inkscape:connector-curvature="0"
     style="fill:none;stroke:#ffffff;stroke-width:2;stroke-miterlimit:10" />
  <text
     style="font-weight:700;font-size:10.66699982px;line-height:1.25;font-family:'Noto Sans Symbols';-inkscape-font-specification:'Noto Sans Symbols, Bold';font-variant-ligatures:normal;font-variant-caps:normal;font-variant-numeric:normal;font-feature-settings:normal;text-align:start;letter-spacing:0;word-spacing:0;fill:#ffffff"
     x="116.284"
     y="288.44202"
     font-weight="700"
     font-size="10.667"
     letter-spacing="0"
     word-spacing="0"
     id="text42">
    <tspan
       x="116.284"
       y="288.44202"
       style="-inkscape-font-specification:'Noto Sans Symbols, Bold';font-variant-ligatures:normal;font-variant-caps:normal;font-variant-numeric:normal;font-feature-settings:normal;text-align:start"
       id="tspan40">30</tspan>
  </text>
  <text
     style="font-weight:700;font-size:10.66699982px;line-height:1.25;font-family:'Noto Sans Symbols';-inkscape-font-specification:'Noto Sans Symbols, Bold';font-variant-ligatures:normal;font-variant-caps:normal;font-variant-numeric:normal;font-feature-settings:normal;text-align:start;letter-spacing:0;word-spacing:0;fill:#ffffff"
     x="116.33981"
     y="122.35699"
     font-weight="700"
     font-size="10.667"
     letter-spacing="0"
     word-spacing="0"
     id="text46">
    <tspan
       x="116.33981"
       y="122.35699"
       style="-inkscape-font-specification:'Noto Sans Symbols, Bold';font-variant-ligatures:normal;font-variant-caps:normal;font-variant-numeric:normal;font-feature-settings:normal;text-align:start"
       id="tspan44">30</tspan>
  </text>
  <text
     style="font-weight:700;font-size:10.66699982px;line-height:1.25;font-family:'Noto Sans Symbols';-inkscape-font-specification:'Noto Sans Symbols, Bold';font-variant-ligatures:normal;font-variant-caps:normal;font-variant-numeric:normal;font-feature-settings:normal;text-align:start;letter-spacing:0;word-spacing:0;fill:#ffffff"
     x="176.18399"
     y="122.819"
     font-weight="700"
     font-size="10.667"
     letter-spacing="0"
     word-spacing="0"
     id="text50">
    <tspan
       x="176.18399"
       y="122.819"
       style="-inkscape-font-specification:'Noto Sans Symbols, Bold';font-variant-ligatures:normal;font-variant-caps:normal;font-variant-numeric:normal;font-feature-settings:normal;text-align:start"
       id="tspan48">30</tspan>
  </text>
  <text
     style="font-weight:700;font-size:10.66699982px;line-height:1.25;font-family:'Noto Sans Symbols';-inkscape-font-specification:'Noto Sans Symbols, Bold';font-variant-ligatures:normal;font-variant-caps:normal;font-variant-numeric:normal;font-feature-settings:normal;text-align:start;letter-spacing:0;word-spacing:0;fill:#ffffff"
     x="176.50899"
     y="288.76901"
     font-weight="700"
     font-size="10.667"
     letter-spacing="0"
     word-spacing="0"
     id="text54">
    <tspan
       x="176.50899"
       y="288.76901"
       style="-inkscape-font-specification:'Noto Sans Symbols, Bold';font-variant-ligatures:normal;font-variant-caps:normal;font-variant-numeric:normal;font-feature-settings:normal;text-align:start"
       id="tspan52">30</tspan>
  </text>
  <text
     style="font-weight:700;font-size:10.66699982px;line-height:1.25;font-family:'Noto Sans Symbols';-inkscape-font-specification:'Noto Sans Symbols, Bold';font-variant-ligatures:normal;font-variant-caps:normal;font-variant-numeric:normal;font-feature-settings:normal;text-align:start;letter-spacing:0;word-spacing:0;fill:#ffffff"
     x="105.881"
     y="93.992996"
     font-weight="700"
     font-size="10.667"
     letter-spacing="0"
     word-spacing="0"
     id="text58">
    <tspan
       x="105.881"
       y="93.992996"
       id="tspan56">40</tspan>
  </text>
  <text
     style="font-weight:700;font-size:10.66699982px;line-height:1.25;font-family:'Noto Sans Symbols';-inkscape-font-specification:'Noto Sans Symbols, Bold';font-variant-ligatures:normal;font-variant-caps:normal;font-variant-numeric:normal;font-feature-settings:normal;text-align:start;letter-spacing:0;word-spacing:0;fill:#ffffff"
     x="186.47"
     y="94.170998"
     font-weight="700"
     font-size="10.667"
     letter-spacing="0"
     word-spacing="0"
     id="text62">
    <tspan
       x="186.47"
       y="94.170998"
       id="tspan60">40</tspan>
  </text>
  <text
     style="font-weight:700;font-size:10.66699982px;line-height:1.25;font-family:'Noto Sans Symbols';-inkscape-font-specification:'Noto Sans Symbols, Bold';font-variant-ligatures:normal;font-variant-caps:normal;font-variant-numeric:normal;font-feature-settings:normal;text-align:start;letter-spacing:0;word-spacing:0;fill:#ffffff"
     x="106.057"
     y="316.55701"
     font-weight="700"
     font-size="10.667"
     letter-spacing="0"
     word-spacing="0"
     id="text66">
    <tspan
       y="316.55701"
       x="106.057"
       id="tspan64">40</tspan>
  </text>
  <text
     style="font-weight:700;font-size:10.66699982px;line-height:1.25;font-family:'Noto Sans Symbols';-inkscape-font-specification:'Noto Sans Symbols, Bold';font-variant-ligatures:normal;font-variant-caps:normal;font-variant-numeric:normal;font-feature-settings:normal;text-align:start;letter-spacing:0;word-spacing:0;fill:#ffffff"
     x="187.33299"
     y="316.47198"
     font-weight="700"
     font-size="10.667"
     letter-spacing="0"
     word-spacing="0"
     id="text70">
    <tspan
       y="316.47198"
       x="187.33299"
       id="tspan68">40</tspan>
  </text>
  <text
     style="font-weight:700;font-size:10.66699982px;line-height:1.25;font-family:'Noto Sans Symbols';-inkscape-font-specification:'Noto Sans Symbols, Bold';font-variant-ligatures:normal;font-variant-caps:normal;font-variant-numeric:normal;font-feature-settings:normal;text-align:start;letter-spacing:0;word-spacing:0;fill:#ffffff"
     x="115.934"
     y="66.002998"
     font-weight="700"
     font-size="10.667"
     letter-spacing="0"
     word-spacing="0"
     id="text76">
    <tspan
       x="115.934"
       y="66.002998"
       id="tspan74">50</tspan>
  </text>
  <text
     style="font-weight:700;font-size:10.66699982px;line-height:1.25;font-family:'Noto Sans Symbols';-inkscape-font-specification:'Noto Sans Symbols, Bold';font-variant-ligatures:normal;font-variant-caps:normal;font-variant-numeric:normal;font-feature-settings:normal;text-align:start;letter-spacing:0;word-spacing:0;fill:#ffffff"
     x="175.75699"
     y="66.002998"
     font-weight="700"
     font-size="10.667"
     letter-spacing="0"
     word-spacing="0"
     id="text80">
    <tspan
       x="175.75699"
       y="66.002998"
       id="tspan78">50</tspan>
  </text>
  <text
     style="font-weight:700;font-size:10.66699982px;line-height:1.25;font-family:'Noto Sans Symbols';-inkscape-font-specification:'Noto Sans Symbols, Bold';font-variant-ligatures:normal;font-variant-caps:normal;font-variant-numeric:normal;font-feature-settings:normal;text-align:start;letter-spacing:0;word-spacing:0;fill:#ffffff"
     x="104.71"
     y="38.775002"
     font-weight="700"
     font-size="10.667"
     letter-spacing="0"
     word-spacing="0"
     id="text84">
    <tspan
       x="104.71"
       y="38.775002"
       id="tspan82">60</tspan>
  </text>
  <text
     style="font-weight:700;font-size:10.66699982px;line-height:1.25;font-family:'Noto Sans Symbols';-inkscape-font-specification:'Noto Sans Symbols, Bold';font-variant-ligatures:normal;font-variant-caps:normal;font-variant-numeric:normal;font-feature-settings:normal;text-align:start;letter-spacing:0;word-spacing:0;fill:#ffffff"
     x="185.299"
     y="38.953003"
     font-weight="700"
     font-size="10.667"
     letter-spacing="0"
     word-spacing="0"
     id="text88">
    <tspan
       x="185.299"
       y="38.953003"
       id="tspan86">60</tspan>
  </text>
  <path
     stroke-miterlimit="10"
     d="m 141.583,355.074 h 25 M 133.6,341.153 h 40 m -50.12,27.833 h 60.001 m -40.564,14.487 h 25"
     id="path106"
     inkscape:connector-curvature="0"
     style="fill:none;stroke:#ffffff;stroke-width:2;stroke-miterlimit:10" />
  <text
     style="font-weight:700;font-size:10.66699982px;line-height:1.25;font-family:'Noto Sans Symbols';-inkscape-font-specification:'Noto Sans Symbols, Bold';font-variant-ligatures:normal;font-variant-caps:normal;font-variant-numeric:normal;font-feature-settings:normal;text-align:start;letter-spacing:0;word-spacing:0;fill:#ffffff"
     x="115.908"
     y="344.608"
     font-weight="700"
     font-size="10.667"
     letter-spacing="0"
     word-spacing="0"
     id="text110">
    <tspan
       x="115.908"
       y="344.608"
       id="tspan108">50</tspan>
  </text>
  <text
     style="font-weight:700;font-size:10.66699982px;line-height:1.25;font-family:'Noto Sans Symbols';-inkscape-font-specification:'Noto Sans Symbols, Bold';font-variant-ligatures:normal;font-variant-caps:normal;font-variant-numeric:normal;font-feature-settings:normal;text-align:start;letter-spacing:0;word-spacing:0;fill:#ffffff"
     x="176.133"
     y="344.935"
     font-weight="700"
     font-size="10.667"
     letter-spacing="0"
     word-spacing="0"
     id="text114">
    <tspan
       x="176.133"
       y="344.935"
       id="tspan112">50</tspan>
  </text>
  <text
     style="font-weight:700;font-size:10.66699982px;line-height:1.25;font-family:'Noto Sans Symbols';-inkscape-font-specification:'Noto Sans Symbols, Bold';font-variant-ligatures:normal;font-variant-caps:normal;font-variant-numeric:normal;font-feature-settings:normal;text-align:start;letter-spacing:0;word-spacing:0;fill:#ffffff"
     x="105.682"
     y="372.72302"
     font-weight="700"
     font-size="10.667"
     letter-spacing="0"
     word-spacing="0"
     id="text118">
    <tspan
       x="105.682"
       y="372.72302"
       id="tspan116">60</tspan>
  </text>
  <text
     style="font-weight:700;font-size:10.66699982px;line-height:1.25;font-family:'Noto Sans Symbols';-inkscape-font-specification:'Noto Sans Symbols, Bold';font-variant-ligatures:normal;font-variant-caps:normal;font-variant-numeric:normal;font-feature-settings:normal;text-align:start;letter-spacing:0;word-spacing:0;fill:#ffffff"
     x="186.957"
     y="372.63699"
     font-weight="700"
     font-size="10.667"
     letter-spacing="0"
     word-spacing="0"
     id="text122">
    <tspan
       x="186.957"
       y="372.63699"
       id="tspan120">60</tspan>
  </text>
  <path
     stroke-miterlimit="10"
     d="m 165.281,48.791 h -25 m 32.983,13.921 h -40 m 50.12,-27.833 h -60.001 m 40.564,-14.487 h -25"
     id="path106-4"
     inkscape:connector-curvature="0"
     style="fill:none;stroke:#ffffff;stroke-width:2;stroke-miterlimit:10" />
</svg>
