<?xml version="1.0" encoding="UTF-8" standalone="no"?>
<svg
   xmlns:dc="http://purl.org/dc/elements/1.1/"
   xmlns:cc="http://creativecommons.org/ns#"
   xmlns:rdf="http://www.w3.org/1999/02/22-rdf-syntax-ns#"
   xmlns:svg="http://www.w3.org/2000/svg"
   xmlns="http://www.w3.org/2000/svg"
   xmlns:sodipodi="http://sodipodi.sourceforge.net/DTD/sodipodi-0.dtd"
   xmlns:inkscape="http://www.inkscape.org/namespaces/inkscape"
   version="1.1"
   x="0px"
   y="0px"
   width="310"
   height="310"
   viewBox="0 0 310.00001 310"
   enable-background="new 0 0 400.667 400.666"
   xml:space="preserve"
   id="svg3932"
   sodipodi:docname="horizon_ball.svg"
   inkscape:version="0.92.3 (2405546, 2018-03-11)"><metadata
   id="metadata3938"><rdf:RDF><cc:Work
       rdf:about=""><dc:format>image/svg+xml</dc:format><dc:type
         rdf:resource="http://purl.org/dc/dcmitype/StillImage" /><dc:title></dc:title></cc:Work></rdf:RDF></metadata><defs
   id="defs3936">
		<linearGradient
   id="SVGID_1_"
   gradientUnits="userSpaceOnUse"
   x1="200.33299"
   y1="276.33249"
   x2="200.33299"
   y2="124.3325">
			<stop
   offset="0"
   style="stop-color:#3D2618"
   id="stop3853" />
			<stop
   offset="0.4999"
   style="stop-color:#503723"
   id="stop3855" />
			<stop
   offset="0.5001"
   style="stop-color:#9CCBE5"
   id="stop3857" />
			<stop
   offset="1"
   style="stop-color:#558EBB"
   id="stop3859" />
		</linearGradient>
		
	</defs><sodipodi:namedview
   pagecolor="#ffffff"
   bordercolor="#666666"
   borderopacity="1"
   objecttolerance="10"
   gridtolerance="10"
   guidetolerance="10"
   inkscape:pageopacity="0"
   inkscape:pageshadow="2"
   inkscape:window-width="1920"
   inkscape:window-height="1014"
   id="namedview3934"
   showgrid="false"
   inkscape:zoom="6.0846268"
   inkscape:cx="179.315"
   inkscape:cy="167.69813"
   inkscape:window-x="0"
   inkscape:window-y="0"
   inkscape:window-maximized="1"
   inkscape:current-layer="g182" />

	
	
	
		
	
		
	
	
		
	
		
	
		
	
		
	
		
	
	
	
	
	
	
	
	

<g
   id="g182"
   transform="translate(-45.85179,-44.055089)"><path
   d="m 301.333,207.62453 c 0,56.68103 -33.963,102.63841 -75.885,102.72221 -0.038,0 -50.076,0 -50.114,0 -41.974,0 -76,-45.98981 -76,-102.72221 0,-56.73239 34.026,-102.72222 76,-102.72222 0.027,0 50.056,0 50.083,0 41.935,0.0595 75.916,46.02766 75.916,102.72222 z"
   id="path3862"
   inkscape:connector-curvature="0"
   style="fill:#000000;fill-opacity:1;stroke-width:1.16258681" /><line
   style="display:inline;fill:none;stroke:#ffffff;stroke-width:2;stroke-miterlimit:10"
   id="line3866"
   y2="202.33299"
   x2="301.33301"
   y1="202.33299"
   x1="99.333008"
   stroke-miterlimit="10" /><line
   style="display:inline;fill:none;stroke:#ffffff;stroke-width:2;stroke-miterlimit:10"
   id="line3868"
   y2="189.24998"
   x2="212.645"
   y1="189.24998"
   x1="187.645"
   stroke-miterlimit="10" /><line
   style="display:inline;fill:none;stroke:#ffffff;stroke-width:2;stroke-miterlimit:10"
   id="line3870"
   y2="215.37498"
   x2="212.83301"
   y1="215.37498"
   x1="187.83301"
   stroke-miterlimit="10" /><line
   style="display:inline;fill:none;stroke:#ffffff;stroke-width:2;stroke-miterlimit:10"
   id="line3872"
   y2="243.29599"
   x2="212.692"
   y1="243.29599"
   x1="187.692"
   stroke-miterlimit="10" /><line
   style="display:inline;fill:none;stroke:#ffffff;stroke-width:2;stroke-miterlimit:10"
   id="line3874"
   y2="161.24998"
   x2="212.83301"
   y1="161.24998"
   x1="187.83301"
   stroke-miterlimit="10" /><line
   style="display:inline;fill:none;stroke:#ffffff;stroke-width:2;stroke-miterlimit:10"
   id="line3876"
   y2="175.28099"
   x2="219.70801"
   y1="175.28099"
   x1="179.70801"
   stroke-miterlimit="10" /><line
   style="display:inline;fill:none;stroke:#ffffff;stroke-width:2;stroke-miterlimit:10"
   id="line3878"
   y2="229.37498"
   x2="219.70801"
   y1="229.37498"
   x1="179.70801"
   stroke-miterlimit="10" /><line
   style="display:inline;fill:none;stroke:#ffffff;stroke-width:2;stroke-miterlimit:10"
   id="line3880"
   y2="257.20801"
   x2="229.70801"
   y1="257.20801"
   x1="169.70801"
   stroke-miterlimit="10" /><line
   style="display:inline;fill:none;stroke:#ffffff;stroke-width:2;stroke-miterlimit:10"
   id="line3882"
   y2="147.20898"
   x2="229.70801"
   y1="147.20898"
   x1="169.70801"
   stroke-miterlimit="10" /><g
   transform="translate(-0.33399219,1.8759993)"
   style="display:inline"
   id="g3888"><path
     style="fill:#ffffff"
     inkscape:connector-curvature="0"
     id="path3884"
     d="m 166.644,169.224 h 2.25 v 7.901 h -1.493 v -6.488 h -1.627 z" /><path
     style="fill:#ffffff"
     inkscape:connector-curvature="0"
     id="path3886"
     d="m 172.84,169.025 c 0.577,0 1.073,0.142 1.491,0.424 0.417,0.283 0.739,0.715 0.967,1.297 0.227,0.582 0.341,1.392 0.341,2.43 0,1.049 -0.115,1.866 -0.347,2.449 -0.23,0.583 -0.542,1.012 -0.932,1.287 -0.39,0.273 -0.883,0.411 -1.477,0.411 -0.594,0 -1.094,-0.138 -1.499,-0.414 -0.405,-0.276 -0.722,-0.695 -0.951,-1.257 -0.229,-0.562 -0.344,-1.362 -0.344,-2.401 0,-1.45 0.224,-2.501 0.671,-3.153 0.499,-0.715 1.192,-1.073 2.08,-1.073 z m 0.035,1.429 c -0.253,0 -0.479,0.082 -0.675,0.244 -0.196,0.163 -0.347,0.443 -0.45,0.841 -0.103,0.398 -0.155,0.979 -0.155,1.746 0,0.999 0.119,1.689 0.356,2.071 0.238,0.381 0.546,0.572 0.924,0.572 0.365,0 0.654,-0.181 0.869,-0.542 0.261,-0.437 0.391,-1.167 0.391,-2.191 0,-1.039 -0.117,-1.754 -0.351,-2.148 -0.234,-0.394 -0.537,-0.593 -0.909,-0.593 z" /></g><g
   transform="translate(-0.33399219,1.8759993)"
   style="display:inline"
   id="g3894"><path
     style="fill:#ffffff"
     inkscape:connector-curvature="0"
     id="path3890"
     d="m 155.584,143.883 h -1.466 c 0.04,-0.852 0.307,-1.523 0.803,-2.011 0.496,-0.489 1.133,-0.733 1.91,-0.733 0.48,0 0.903,0.101 1.27,0.304 0.367,0.202 0.661,0.494 0.881,0.875 0.221,0.382 0.331,0.769 0.331,1.163 0,0.469 -0.133,0.974 -0.4,1.515 -0.267,0.541 -0.755,1.18 -1.464,1.917 l -0.887,0.935 h 2.816 v 1.391 h -5.473 v -0.72 l 2.444,-2.492 c 0.591,-0.598 0.984,-1.079 1.179,-1.442 0.195,-0.363 0.292,-0.692 0.292,-0.985 0,-0.304 -0.101,-0.556 -0.303,-0.755 -0.203,-0.198 -0.463,-0.298 -0.782,-0.298 -0.322,0 -0.591,0.12 -0.806,0.36 -0.215,0.24 -0.33,0.564 -0.345,0.976 z" /><path
     style="fill:#ffffff"
     inkscape:connector-curvature="0"
     id="path3892"
     d="m 162.884,141.138 c 0.577,0 1.073,0.142 1.491,0.424 0.417,0.283 0.739,0.715 0.967,1.297 0.227,0.582 0.341,1.392 0.341,2.43 0,1.049 -0.115,1.866 -0.347,2.449 -0.23,0.583 -0.542,1.012 -0.932,1.287 -0.39,0.273 -0.883,0.411 -1.477,0.411 -0.594,0 -1.094,-0.138 -1.499,-0.414 -0.405,-0.276 -0.722,-0.695 -0.951,-1.257 -0.229,-0.562 -0.344,-1.362 -0.344,-2.401 0,-1.45 0.224,-2.501 0.671,-3.153 0.499,-0.715 1.192,-1.073 2.08,-1.073 z m 0.034,1.429 c -0.253,0 -0.479,0.082 -0.675,0.244 -0.196,0.163 -0.347,0.443 -0.45,0.841 -0.103,0.398 -0.155,0.979 -0.155,1.746 0,0.999 0.119,1.689 0.356,2.071 0.238,0.381 0.546,0.572 0.924,0.572 0.365,0 0.654,-0.181 0.869,-0.542 0.261,-0.437 0.391,-1.167 0.391,-2.191 0,-1.039 -0.117,-1.754 -0.351,-2.148 -0.234,-0.394 -0.536,-0.593 -0.909,-0.593 z" /></g><g
   transform="translate(-0.33399219,1.8759993)"
   style="display:inline"
   id="g3900"><path
     style="fill:#ffffff"
     inkscape:connector-curvature="0"
     id="path3896"
     d="m 234.958,143.784 h -1.466 c 0.04,-0.852 0.307,-1.523 0.803,-2.011 0.496,-0.489 1.133,-0.733 1.91,-0.733 0.48,0 0.903,0.101 1.27,0.304 0.367,0.202 0.661,0.494 0.881,0.875 0.221,0.382 0.331,0.769 0.331,1.163 0,0.469 -0.133,0.974 -0.4,1.515 -0.267,0.541 -0.755,1.18 -1.464,1.917 l -0.887,0.935 h 2.816 v 1.391 h -5.473 v -0.72 l 2.444,-2.492 c 0.591,-0.598 0.984,-1.079 1.179,-1.442 0.195,-0.363 0.292,-0.692 0.292,-0.985 0,-0.304 -0.101,-0.556 -0.303,-0.755 -0.203,-0.198 -0.463,-0.298 -0.782,-0.298 -0.322,0 -0.591,0.12 -0.806,0.36 -0.215,0.24 -0.33,0.564 -0.345,0.976 z" /><path
     style="fill:#ffffff"
     inkscape:connector-curvature="0"
     id="path3898"
     d="m 242.258,141.039 c 0.577,0 1.073,0.142 1.491,0.424 0.417,0.283 0.739,0.715 0.967,1.297 0.227,0.582 0.341,1.392 0.341,2.43 0,1.049 -0.115,1.866 -0.347,2.449 -0.23,0.583 -0.542,1.012 -0.932,1.287 -0.39,0.273 -0.883,0.411 -1.477,0.411 -0.594,0 -1.094,-0.138 -1.499,-0.414 -0.405,-0.276 -0.722,-0.695 -0.951,-1.257 -0.229,-0.562 -0.344,-1.362 -0.344,-2.401 0,-1.45 0.224,-2.501 0.671,-3.153 0.499,-0.715 1.192,-1.073 2.08,-1.073 z m 0.034,1.429 c -0.253,0 -0.479,0.082 -0.675,0.244 -0.196,0.163 -0.347,0.443 -0.45,0.841 -0.103,0.398 -0.155,0.979 -0.155,1.746 0,0.999 0.119,1.689 0.356,2.071 0.238,0.381 0.546,0.572 0.924,0.572 0.365,0 0.654,-0.181 0.869,-0.542 0.261,-0.437 0.391,-1.167 0.391,-2.191 0,-1.039 -0.117,-1.754 -0.351,-2.148 -0.234,-0.394 -0.536,-0.593 -0.909,-0.593 z" /></g><g
   transform="translate(-0.33399219,1.8759993)"
   style="display:inline"
   id="g3906"><path
     style="fill:#ffffff"
     inkscape:connector-curvature="0"
     id="path3902"
     d="m 224.341,169.224 h 2.25 v 7.901 h -1.493 v -6.488 h -1.627 z" /><path
     style="fill:#ffffff"
     inkscape:connector-curvature="0"
     id="path3904"
     d="m 230.538,169.025 c 0.577,0 1.073,0.142 1.491,0.424 0.417,0.283 0.739,0.715 0.967,1.297 0.227,0.582 0.341,1.392 0.341,2.43 0,1.049 -0.115,1.866 -0.347,2.449 -0.23,0.583 -0.542,1.012 -0.932,1.287 -0.39,0.273 -0.883,0.411 -1.477,0.411 -0.594,0 -1.094,-0.138 -1.499,-0.414 -0.405,-0.276 -0.722,-0.695 -0.951,-1.257 -0.229,-0.562 -0.344,-1.362 -0.344,-2.401 0,-1.45 0.224,-2.501 0.671,-3.153 0.499,-0.715 1.191,-1.073 2.08,-1.073 z m 0.034,1.429 c -0.253,0 -0.479,0.082 -0.675,0.244 -0.196,0.163 -0.347,0.443 -0.45,0.841 -0.103,0.398 -0.155,0.979 -0.155,1.746 0,0.999 0.119,1.689 0.356,2.071 0.238,0.381 0.546,0.572 0.924,0.572 0.365,0 0.654,-0.181 0.869,-0.542 0.261,-0.437 0.391,-1.167 0.391,-2.191 0,-1.039 -0.117,-1.754 -0.351,-2.148 -0.234,-0.394 -0.537,-0.593 -0.909,-0.593 z" /></g><g
   transform="translate(-0.33399219,1.8759993)"
   style="display:inline"
   id="g3912"><path
     style="fill:#ffffff"
     inkscape:connector-curvature="0"
     id="path3908"
     d="m 166.644,223.224 h 2.25 v 7.901 h -1.493 v -6.488 h -1.627 z" /><path
     style="fill:#ffffff"
     inkscape:connector-curvature="0"
     id="path3910"
     d="m 172.84,223.025 c 0.577,0 1.073,0.142 1.491,0.424 0.417,0.283 0.739,0.715 0.967,1.297 0.227,0.582 0.341,1.392 0.341,2.43 0,1.049 -0.115,1.866 -0.347,2.449 -0.23,0.583 -0.542,1.012 -0.932,1.287 -0.39,0.273 -0.883,0.411 -1.477,0.411 -0.594,0 -1.094,-0.138 -1.499,-0.414 -0.405,-0.276 -0.722,-0.695 -0.951,-1.257 -0.229,-0.562 -0.344,-1.362 -0.344,-2.401 0,-1.45 0.224,-2.501 0.671,-3.153 0.499,-0.715 1.192,-1.073 2.08,-1.073 z m 0.035,1.429 c -0.253,0 -0.479,0.082 -0.675,0.244 -0.196,0.163 -0.347,0.443 -0.45,0.841 -0.103,0.398 -0.155,0.979 -0.155,1.746 0,0.999 0.119,1.689 0.356,2.071 0.238,0.381 0.546,0.572 0.924,0.572 0.365,0 0.654,-0.181 0.869,-0.542 0.261,-0.437 0.391,-1.167 0.391,-2.191 0,-1.039 -0.117,-1.754 -0.351,-2.148 -0.234,-0.394 -0.537,-0.593 -0.909,-0.593 z" /></g><g
   transform="translate(-0.33399219,1.8759993)"
   style="display:inline"
   id="g3918"><path
     style="fill:#ffffff"
     inkscape:connector-curvature="0"
     id="path3914"
     d="m 224.341,223.224 h 2.25 v 7.901 h -1.493 v -6.488 h -1.627 z" /><path
     style="fill:#ffffff"
     inkscape:connector-curvature="0"
     id="path3916"
     d="m 230.538,223.025 c 0.577,0 1.073,0.142 1.491,0.424 0.417,0.283 0.739,0.715 0.967,1.297 0.227,0.582 0.341,1.392 0.341,2.43 0,1.049 -0.115,1.866 -0.347,2.449 -0.23,0.583 -0.542,1.012 -0.932,1.287 -0.39,0.273 -0.883,0.411 -1.477,0.411 -0.594,0 -1.094,-0.138 -1.499,-0.414 -0.405,-0.276 -0.722,-0.695 -0.951,-1.257 -0.229,-0.562 -0.344,-1.362 -0.344,-2.401 0,-1.45 0.224,-2.501 0.671,-3.153 0.499,-0.715 1.191,-1.073 2.08,-1.073 z m 0.034,1.429 c -0.253,0 -0.479,0.082 -0.675,0.244 -0.196,0.163 -0.347,0.443 -0.45,0.841 -0.103,0.398 -0.155,0.979 -0.155,1.746 0,0.999 0.119,1.689 0.356,2.071 0.238,0.381 0.546,0.572 0.924,0.572 0.365,0 0.654,-0.181 0.869,-0.542 0.261,-0.437 0.391,-1.167 0.391,-2.191 0,-1.039 -0.117,-1.754 -0.351,-2.148 -0.234,-0.394 -0.537,-0.593 -0.909,-0.593 z" /></g><g
   style="display:inline"
   id="g3924"
   transform="translate(-0.33399219,-0.12400073)"><path
     style="fill:#ffffff"
     inkscape:connector-curvature="0"
     id="path3920"
     d="m 155.584,255.883 h -1.466 c 0.04,-0.852 0.307,-1.523 0.803,-2.011 0.496,-0.489 1.133,-0.733 1.91,-0.733 0.48,0 0.903,0.101 1.27,0.304 0.367,0.202 0.661,0.494 0.881,0.875 0.221,0.382 0.331,0.769 0.331,1.163 0,0.469 -0.133,0.974 -0.4,1.515 -0.267,0.541 -0.755,1.18 -1.464,1.917 l -0.887,0.935 h 2.816 v 1.391 h -5.473 v -0.72 l 2.444,-2.492 c 0.591,-0.598 0.984,-1.079 1.179,-1.442 0.195,-0.363 0.292,-0.692 0.292,-0.985 0,-0.304 -0.101,-0.556 -0.303,-0.755 -0.203,-0.198 -0.463,-0.298 -0.782,-0.298 -0.322,0 -0.591,0.12 -0.806,0.36 -0.215,0.24 -0.33,0.564 -0.345,0.976 z" /><path
     style="fill:#ffffff"
     inkscape:connector-curvature="0"
     id="path3922"
     d="m 162.884,253.138 c 0.577,0 1.073,0.142 1.491,0.424 0.417,0.283 0.739,0.715 0.967,1.297 0.227,0.582 0.341,1.392 0.341,2.43 0,1.049 -0.115,1.866 -0.347,2.449 -0.23,0.583 -0.542,1.012 -0.932,1.287 -0.39,0.273 -0.883,0.411 -1.477,0.411 -0.594,0 -1.094,-0.138 -1.499,-0.414 -0.405,-0.276 -0.722,-0.695 -0.951,-1.257 -0.229,-0.562 -0.344,-1.362 -0.344,-2.401 0,-1.45 0.224,-2.501 0.671,-3.153 0.499,-0.715 1.192,-1.073 2.08,-1.073 z m 0.034,1.429 c -0.253,0 -0.479,0.082 -0.675,0.244 -0.196,0.163 -0.347,0.443 -0.45,0.841 -0.103,0.398 -0.155,0.979 -0.155,1.746 0,0.999 0.119,1.689 0.356,2.071 0.238,0.381 0.546,0.572 0.924,0.572 0.365,0 0.654,-0.181 0.869,-0.542 0.261,-0.437 0.391,-1.167 0.391,-2.191 0,-1.039 -0.117,-1.754 -0.351,-2.148 -0.234,-0.394 -0.536,-0.593 -0.909,-0.593 z" /></g><g
   transform="translate(-0.33399219,1.8759993)"
   style="display:inline"
   id="g3930"><path
     style="fill:#ffffff"
     inkscape:connector-curvature="0"
     id="path3926"
     d="m 234.958,253.784 h -1.466 c 0.04,-0.852 0.307,-1.523 0.803,-2.011 0.496,-0.489 1.133,-0.733 1.91,-0.733 0.48,0 0.903,0.101 1.27,0.304 0.367,0.202 0.661,0.494 0.881,0.875 0.221,0.382 0.331,0.769 0.331,1.163 0,0.469 -0.133,0.974 -0.4,1.515 -0.267,0.541 -0.755,1.18 -1.464,1.917 l -0.887,0.935 h 2.816 v 1.391 h -5.473 v -0.72 l 2.444,-2.492 c 0.591,-0.598 0.984,-1.079 1.179,-1.442 0.195,-0.363 0.292,-0.692 0.292,-0.985 0,-0.304 -0.101,-0.556 -0.303,-0.755 -0.203,-0.198 -0.463,-0.298 -0.782,-0.298 -0.322,0 -0.591,0.12 -0.806,0.36 -0.215,0.24 -0.33,0.564 -0.345,0.976 z" /><path
     style="fill:#ffffff"
     inkscape:connector-curvature="0"
     id="path3928"
     d="m 242.258,251.039 c 0.577,0 1.073,0.142 1.491,0.424 0.417,0.283 0.739,0.715 0.967,1.297 0.227,0.582 0.341,1.392 0.341,2.43 0,1.049 -0.115,1.866 -0.347,2.449 -0.23,0.583 -0.542,1.012 -0.932,1.287 -0.39,0.273 -0.883,0.411 -1.477,0.411 -0.594,0 -1.094,-0.138 -1.499,-0.414 -0.405,-0.276 -0.722,-0.695 -0.951,-1.257 -0.229,-0.562 -0.344,-1.362 -0.344,-2.401 0,-1.45 0.224,-2.501 0.671,-3.153 0.499,-0.715 1.192,-1.073 2.08,-1.073 z m 0.034,1.429 c -0.253,0 -0.479,0.082 -0.675,0.244 -0.196,0.163 -0.347,0.443 -0.45,0.841 -0.103,0.398 -0.155,0.979 -0.155,1.746 0,0.999 0.119,1.689 0.356,2.071 0.238,0.381 0.546,0.572 0.924,0.572 0.365,0 0.654,-0.181 0.869,-0.542 0.261,-0.437 0.391,-1.167 0.391,-2.191 0,-1.039 -0.117,-1.754 -0.351,-2.148 -0.234,-0.394 -0.536,-0.593 -0.909,-0.593 z" /></g><line
   style="display:inline;fill:none;stroke:#ffffff;stroke-width:2;stroke-miterlimit:10"
   id="line3874-3"
   y2="133.16809"
   x2="212.46294"
   y1="133.16809"
   x1="187.46294"
   stroke-miterlimit="10" />

<line
   style="display:inline;fill:none;stroke:#ffffff;stroke-width:2;stroke-miterlimit:10"
   id="line3872-6"
   y2="271.69482"
   x2="212.0255"
   y1="271.69482"
   x1="187.0255"
   stroke-miterlimit="10" />

</g></svg>