<svg xmlns="http://www.w3.org/2000/svg" width="187.388" height="600" viewBox="0 0 49.58 158.75">
  <path d="M25.207-.019H49.58v158.75H25.207z"/>
  <path d="M2.49 93.801h27.427v64.949H2.49z"/>
  <path d="M0 0h4.6v158.75H0z"/>
  <path d="M2.309 0h26.925v45.979H2.309z"/>
  <text style="line-height:1.25;-inkscape-font-specification:'sans-serif, Bold';font-variant-ligatures:normal;font-variant-caps:normal;font-variant-numeric:normal;font-feature-settings:normal;text-align:center" x="45.394" y="63.266" transform="scale(.86876 1.15106)" font-weight="700" font-size="8.207" font-family="sans-serif" letter-spacing="0" word-spacing="0" text-anchor="middle" fill="#fff" stroke-width=".382">
    <tspan x="45.394" y="63.266" style="-inkscape-font-specification:'sans-serif, Bold';font-variant-ligatures:normal;font-variant-caps:normal;font-variant-numeric:normal;font-feature-settings:normal;text-align:center">000</tspan>
  </text>
  <path d="M30.024 75.436c-.07-.23-.127-.996-.127-1.701v-1.283l-1.49-1.075c-1.421-1.024-1.533-1.075-2.342-1.075h-.85V69.159H26c.757 0 .837-.044 2.34-1.266l1.557-1.266v-1.418c0-.78.058-1.608.128-1.838l.127-.419h17.944l.154.363c.116.273.132 1.84.064 6.316-.05 3.274-.121 6.014-.158 6.088-.037.075-4.103.136-9.035.136h-8.97zm17.17-6.032v-5.145H31.067v10.289h16.125z" fill="#f60" paint-order="fill markers stroke"/>
  <text style="line-height:1.25;-inkscape-font-specification:'sans-serif, Bold';font-variant-ligatures:normal;font-variant-caps:normal;font-variant-numeric:normal;font-feature-settings:normal;text-align:start" x="35.684" y="80.623" font-weight="700" font-size="4.586" font-family="sans-serif" letter-spacing="0" word-spacing="0" fill="#fff" stroke-width=".265">
    <tspan x="35.684" y="80.623">KT</tspan>
  </text>
  <div id="warnflag">
  <path stroke="red" stroke-width=".907" stroke-linejoin="round" stroke-miterlimit="10" paint-order="fill markers stroke" fill="none" d="M34.358 120.431h9.649v8.382h-9.649z"/>
  <text transform="scale(.95762 1.04426)" y="121.822" x="40.874" style="line-height:1.25;-inkscape-font-specification:'sans-serif, Bold';font-variant-ligatures:normal;font-variant-caps:normal;font-variant-numeric:normal;font-feature-settings:normal;text-align:center" font-weight="700" font-size="6.595" font-family="sans-serif" letter-spacing="0" word-spacing="0" text-anchor="middle" fill="#fff" stroke-width=".38">
    <tspan style="-inkscape-font-specification:'sans-serif, Bold';font-variant-ligatures:normal;font-variant-caps:normal;font-variant-numeric:normal;font-feature-settings:normal;text-align:center" y="121.822" x="40.874">W</tspan>
  </text>
  </div>
</svg>